# xmcd CD database file
#
# Track frame offsets:
#	150
#	23961
#	43550
#
# Disc length: 835 seconds
#
# Revision: 0
# Processed by: cddbd v1.5.1PL0 Copyright (c) Steve Scherf et al.
# Submitted via: CDex 1.51
#
DISCID=1c034103
DTITLE=cune - 星をみてれば
DYEAR=1900
DGENRE=Rock
TTITLE0=星をみてれば
TTITLE1=SAMURAI DRIVE
TTITLE2=太陽は虹色だった
EXTD=
EXTT0=
EXTT1=
EXTT2=
PLAYORDER=
